01	     *********** ****    ****      ***      ******** *********** ****    *** **********
02	          *+*     +*+*+* *+*+*+   *+* *+*   *+*    *+*    *+*     *+*+*   *+* *+*       
03	          +*+     +*+ +*+*+ +*+  +*+   +*+  +*+           +*+     *+*+*+  +*+ +*+       
04	          +$+     +$+  +*+  +$+ +$++*++$++* *$*           +$+     +$+ +*+ +$+ +$++*++$ 
05	          +$+     +$+       +$+ +$+     +$+ +$+   +$+$    +$+     +$+  +$+$+$ +$+       
06	          $+$     $+$       $+$ $+$     $+$ $+$    $+$    $+$     $+$   $+$+$ $+$       
07	      $$$$$$$$$$$ $$$       $$$ $$$     $$$  $$$$$$$$ $$$$$$$$$$$ $$$    $$$$ $$$$$$$$$$   
08	                                                
09	 
10	 
11	 
12	                          Another Fine Release Brought to you from - IMAGiNE                 
13	                                                
14	 
15	********************************************************************************************************************                               
16	                  The Last Exorcism 2010 READNFO CAM XViD - IMAGiNE
17	********************************************************************************************************************
18	 
19	Ripper ...........: IMAGiNE                                        IMDB Rating.......:6.0/10                           
20	Video Codec.......: XVID                                         Release Date......:10/09/10
21	Audio Codec.......:MP3                                           Theatre Date......:27/08/10
22	Audio Bitrate.....:128                                              Runtime.......:1h 20mn
23	Subtitles.........:NIL                                                 Language..........:ENGLISH
24	Resolution...... 704 x 352                                      IMDb URL..........:http://www.imdb.com/title/tt1320244/
25	 
26	 
27	DETAILS:
28	 
29	Video
30	ID                               : 0
31	Format                           : MPEG-4 Visual
32	Format profile                   : Advanced Simple@L5
33	Format settings, BVOP            : Yes
34	Format settings, QPel            : No
35	Format settings, GMC             : No warppoints
36	Format settings, Matrix          : Default (MPEG)
37	Muxing mode                      : Packed bitstream
38	Codec ID                         : XVID
39	Codec ID/Hint                    : XviD
40	Duration                         : 1h 20mn
41	Bit rate                         : 1 092 Kbps
42	Width                            : 704 pixels
43	Height                           : 352 pixels
44	Display aspect ratio             : 2.000
45	Frame rate                       : 23.976 fps
46	Resolution                       : 24 bits
47	Colorimetry                      : 4:2:0
48	Scan type                        : Progressive
49	Bits/(Pixel*Frame)               : 0.184
50	Stream size                      : 632 MiB (89%)
51	Writing library                  : XviD 1.2.1 (UTC 2008-12-04)
52	 
53	Audio
54	ID                               : 1
55	Format                           : MPEG Audio
56	Format version                   : Version 1
57	Format profile                   : Layer 3
58	Codec ID                         : 55
59	Codec ID/Hint                    : MP3
60	Duration                         : 1h 20mn
61	Bit rate mode                    : Constant
62	Bit rate                         : 128 Kbps
63	Channel(s)                       : 2 channels
64	Sampling rate                    : 44.1 KHz
65	Resolution                       : 16 bits
66	Stream size                      : 74.1 MiB (10%)
67	Alignment                        : Split accross interleaves
68	Interleave, duration             : 42 ms (1.00 video frame)
69	Interleave, preload duration     : 500 ms
70	 
71	 
72	 
73	SOURCES:
74	 
75	VIDEO:The Last Exorcism 2010 VOBS - lkrg  Thanks bro
76	AUDIO:The Last Exorcism 2010 VOBS - lkrg  Thanks bro
77	 
78	NOTES:
79	 
80	IMAGiNE bringing you another release.....The Last Exorcism 2010
81	 
82	Ok first off many thanls to Lkrg for sending us the vobs .....cheers m8ty ;-)
83	Right source was filmed at a slight angle and had borders at different angles at both sides and bottom....The mainly issue was
84	the flicker also colours seemed to change throughout the film and was on the dark side.
85	Audio on source was dd2.0 448 .....still cam audio and pretty decent for cam after the first few secs
86	 
87	Well work done......first decent to strip the audio and encode it to mp3 128 and to leave more room for the video bitrate.
88	Then it was a case of making a script which inc the normal resize,white balance,brightness,contrast,chroma sharpen.....but we also needed to use
89	some of vdub plugins,we used the quad filter to allow us to crop at different angles without losing any video and then we used a smoother to reduce
90	the video noise and a rgb eq filter.
91	Once done it was a case of remuxing the encoded audio
92	 
93	Now for the flicker.......it's still there and it's not nice ,shame really  Anyway you have been warned and if your unsure grab the sample.....
94	Oh and yes the screenies will look better,they always do,but they are off this release.
95	 
96	Enjoy ;-)